<?xml version="1.0" encoding="utf-8"?>
<!-- Generator: Adobe Illustrator 23.1.1, SVG Export Plug-In . SVG Version: 6.00 Build 0)  -->
<svg version="1.1"
	 id="svg2" xmlns:cc="http://creativecommons.org/ns#" xmlns:dc="http://purl.org/dc/elements/1.1/" xmlns:inkscape="http://www.inkscape.org/namespaces/inkscape" xmlns:rdf="http://www.w3.org/1999/02/22-rdf-syntax-ns#" xmlns:sodipodi="http://sodipodi.sourceforge.net/DTD/sodipodi-0.dtd" xmlns:svg="http://www.w3.org/2000/svg"
	 xmlns="http://www.w3.org/2000/svg" xmlns:xlink="http://www.w3.org/1999/xlink" x="0px" y="0px" viewBox="0 0 186.1 312.3"
	 style="enable-background:new 0 0 186.1 312.3;" xml:space="preserve">
<style type="text/css">
	.st0{fill:#009345;}
	.st1{fill:#006837;}
	.st2{fill:#3AB54A;}
</style>
<sodipodi:namedview  bordercolor="#666666" borderopacity="1" fit-margin-bottom="0" fit-margin-left="0" fit-margin-right="0" fit-margin-top="0" gridtolerance="10" guidetolerance="10" id="namedview4" inkscape:current-layer="g16" inkscape:cx="310.25785" inkscape:cy="39.574242" inkscape:pageopacity="0" inkscape:pageshadow="2" inkscape:window-height="972" inkscape:window-maximized="1" inkscape:window-width="1280" inkscape:window-x="0" inkscape:window-y="0" inkscape:zoom="0.78" objecttolerance="10" pagecolor="#ffffff" showgrid="false">
	</sodipodi:namedview>
<g id="g16">
	<g id="g124" transform="translate(192.88,741.0313)">
		<path id="path126" inkscape:connector-curvature="0" class="st0" d="M-130.5-626.4l-62.4,36v27.9l62.4-36l62.4,36v-27.9
			L-130.5-626.4z"/>
	</g>
	<g id="g128" transform="translate(241.9322,597.0156)">
		<path id="path130" inkscape:connector-curvature="0" class="st1" d="M-118.2-302.4l-62.4-36v-27.9l62.4,36l62.4-36v27.9
			L-118.2-302.4z"/>
	</g>
	<g id="g132" transform="translate(142.9601,683.8525)">
		<path id="path134" inkscape:connector-curvature="0" class="st1" d="M-143-497.7l62.4-36l24.2,14l-62.4,36v72.1l-24.2-14V-497.7z"
			/>
	</g>
	<g id="g136" transform="translate(267.3566,726.5303)">
		<path id="path138" inkscape:connector-curvature="0" class="st2" d="M-111.9-593.8l-62.4-36l-24.2,14l62.4,36v72l24.2-14V-593.8z"
			/>
	</g>
	<g id="g140" transform="translate(167.6227,611.707)">
		<path id="path142" inkscape:connector-curvature="0" class="st2" d="M-136.8-335.4l0-72l24.2-14v72.1l62.4,36l-24.2,14
			L-136.8-335.4z"/>
	</g>
	<g id="g144" transform="translate(291.8478,654.1934)">
		<path id="path146" inkscape:connector-curvature="0" class="st0" d="M-105.7-431v-72.1l-24.2-14v72l-62.4,36l24.2,14L-105.7-431z"
			/>
	</g>
	<g id="g148" transform="translate(287.3224,751.3457)">
		<path id="path150" inkscape:connector-curvature="0" class="st2" d="M-106.9-649.6v-14.3c0-48.3-39.1-87.4-87.4-87.4h0
			c-48.3,0-87.4,39.1-87.4,87.4v14.3l0,4.8h0v31.2l40.4-23.3v-7.9h0v-19.1c0-13.1,5.2-24.7,13.8-33.3c8.6-8.5,20.2-13.8,33.3-13.8
			c13.1,0,24.7,5.2,33.3,13.8c8.5,8.6,13.8,20.2,13.8,33.3v19.1h0v7.9l40.4,23.3v-31.2h0L-106.9-649.6z"/>
	</g>
</g>
</svg>
